# xmcd
#
# Track frame offsets:
#	150
#	10077
#	22675
#	34719
#	47151
#	59134
#	69623
#	79449
#	90298
#	101118
#	113128
#	123627
#	134343
#	145838
#	156911
#	169251
#	179106
#	191121
#	202003
#	213007
#	225504
#	234532
#	244627
#	257781
#	267320
#	278355
#	290599
#	301496
#	315214
#	324518
#	335952
#
# Disc length: 4597 seconds
#
# Revision: 0
# Processed by: cddbd v1.5.2PL0 Copyright (c) Steve Scherf et al.
# Submitted via: audiograbber 1.83.01
#
DISCID=ca11f31f
DTITLE=George Jones - Gene Pitney - George Jones and Gene Pitney Duets [BCD 1579
DTITLE=0-AH]
DYEAR=1965
DGENRE=Country (traditional)
TTITLE0=I've Got Five Dollars And It's Saturday Night
TTITLE1=Sweeter Than The Flowers
TTITLE2=My Shoes Keep Walking Back To You
TTITLE3=Wreck On The Highway
TTITLE4=I've Got A New Heartache
TTITLE5=One Has My Name
TTITLE6=Don't Rob Another Man's Castle
TTITLE7=I'm A Fool To Care
TTITLE8=Born To Lose
TTITLE9=I Really Don't Want To Know
TTITLE10=Mockin' Bird Hill
TTITLE11=As Long As I Live
TTITLE12=Y'all Come
TTITLE13=Someday You'll Want Me To Want You
TTITLE14=Louisiana Man
TTITLE15=Big Job
TTITLE16=Your Old Standby
TTITLE17=Why Baby Why
TTITLE18=That's All It Took
TTITLE19=I Can't Stop Loving You
TTITLE20=Love Bug
TTITLE21=I'm Gonna Listen To Me
TTITLE22=She Thinks I Still Care
TTITLE23=Drinking From The Well Of Your Love
TTITLE24=For Me This Is Happy
TTITLE25=A Thousand Arms (Five Hundred Hearts)
TTITLE26=The More I Saw Of Her (The Blinder I Became)
TTITLE27=Life To Go
TTITLE28=I'm Up To My Neck In I O U 'S
TTITLE29=Won't Take Long
TTITLE30=I'd Like To See Me Stop You
EXTD=
EXTT0=
EXTT1=
EXTT2=
EXTT3=
EXTT4=
EXTT5=
EXTT6=
EXTT7=
EXTT8=
EXTT9=
EXTT10=
EXTT11=
EXTT12=
EXTT13=
EXTT14=
EXTT15=
EXTT16=
EXTT17=
EXTT18=
EXTT19=
EXTT20=
EXTT21=
EXTT22=
EXTT23=
EXTT24=
EXTT25=
EXTT26=
EXTT27=
EXTT28=
EXTT29=
EXTT30=
PLAYORDER=
